<svg xmlns="http://www.w3.org/2000/svg" xmlns:xlink="http://www.w3.org/1999/xlink" fill="none" version="1.1" width="24" height="24" viewBox="0 0 24 24"><defs><clipPath id="master_svg0_1_6428"><rect x="0" y="0" width="24" height="24" rx="0"/></clipPath></defs><g clip-path="url(#master_svg0_1_6428)"><g><path d="M21,3L21,14.74L16.304000000000002,19.435L12.391,19.435L9.954,21.783L6.913,21.783L6.913,19.435L3,19.435L3,6.13L4.227,3L21,3ZM19.435,4.5649999999999995L6.13,4.5649999999999995L6.13,16.305L9.26,16.305L9.26,18.652L11.609,16.304000000000002L16.304000000000002,16.304000000000002L19.434,13.174L19.435,4.5649999999999995L19.435,4.5649999999999995ZM16.305,7.695L16.305,12.391L14.739,12.391L14.739,7.696L16.305,7.695L16.305,7.695ZM12.391,7.695L12.391,12.391L10.826,12.391L10.826,7.696L12.391,7.695L12.391,7.695Z" fill="#A6A6A6" fill-opacity="1" style="mix-blend-mode:passthrough"/></g></g></svg>