<svg xmlns="http://www.w3.org/2000/svg" xmlns:xlink="http://www.w3.org/1999/xlink" fill="none" version="1.1" width="24" height="24" viewBox="0 0 24 24"><defs><clipPath id="master_svg0_1_6426"><rect x="0" y="0" width="24" height="24" rx="0"/></clipPath></defs><g clip-path="url(#master_svg0_1_6426)"><g><path d="M22.16199980545044,5.655999328460693C21.398599805450438,5.993689328460693,20.588999805450438,6.215469328460694,19.75999980545044,6.313999328460693C20.63379980545044,5.791429328460693,21.28769980545044,4.969009328460693,21.59999980545044,4.000000328460693C20.77999980545044,4.488000328460694,19.88099980545044,4.829999328460693,18.94399980545044,5.014999328460693C17.64989980545044,3.6303196284606933,15.58629980545044,3.2890893284606935,13.91529980545044,4.183453328460693C12.244299805450439,5.077819328460693,11.38362980545044,6.984149328460694,11.81799980545044,8.828999328460693C8.45501980545044,8.660439328460694,5.32173980545044,7.071999328460693,3.1979998054504395,4.458999328460694C2.8262898054504397,5.097449328460693,2.6309558054504394,5.823229328460693,2.6320008054504394,6.5619993284606934C2.6320008054504394,8.011999328460693,3.3699998054504396,9.292999328460693,4.4919998054504395,10.042999328460693C3.8280098054504395,10.022099328460694,3.1786298054504396,9.842779328460693,2.5980008054504395,9.519999328460694L2.5980008054504395,9.571999328460693C2.5984138054504395,11.563039328460693,4.001519805450439,13.278119328460694,5.95299980545044,13.672999328460694C5.3366198054504395,13.840009328460694,4.69030980545044,13.864609328460693,4.062999805450439,13.745009328460693C4.610129805450439,15.449209328460693,6.180449805450439,16.616809328460693,7.969999805450439,16.650009328460694C6.217939805450439,18.026009328460695,3.9907398054504393,18.649109328460693,1.7789998054504395,18.382009328460693C3.690699805450439,19.611409328460695,5.91609980545044,20.264109328460695,8.18899980545044,20.262009328460692C15.88199980545044,20.262009328460692,20.088999805450438,13.889009328460693,20.088999805450438,8.361999328460694C20.088999805450438,8.181999328460694,20.08399980545044,7.999999328460693,20.07599980545044,7.821999328460693C20.89489980545044,7.230169328460693,21.60159980545044,6.497019328460693,22.16199980545044,5.655999328460693L22.16199980545044,5.655999328460693Z" fill="#419AD1" fill-opacity="1" style="mix-blend-mode:passthrough"/></g></g></svg>